<svg version="1.1" id="Capa_1" xmlns="http://www.w3.org/2000/svg" xmlns:xlink="http://www.w3.org/1999/xlink" x="0px" y="0px"
	 width="20px" height="20px" viewBox="0 0 512 512" enable-background="new 0 0 512 512" xml:space="preserve">
<g>
	<g>
		<path fill="#8A181A" d="M256,512c141.161,0,256-114.844,256-256C512,114.839,397.161,0,256,0S0,114.839,0,256
			C0,397.156,114.839,512,256,512z M256,81.024c96.479,0,174.975,78.491,174.975,174.976S352.479,430.977,256,430.977
			S81.024,352.479,81.024,256S159.521,81.024,256,81.024z"/>
		<path fill="#8A181A" d="M241.432,388.038c8.043,8.048,21.088,8.048,29.137,0l102.42-102.42c8.044-8.048,5.344-14.568-6.033-14.568
			h-39.098V126.167c0-4.556-3.688-8.243-8.236-8.243H192.385c-4.548,0-8.236,3.688-8.236,8.243v144.882H145.05
			c-11.376,0-14.076,6.52-6.033,14.568L241.432,388.038z"/>
	</g>
</g>
</svg>
